<svg width="18" height="18" viewBox="0 0 18 18" fill="none" xmlns="http://www.w3.org/2000/svg">
<path d="M1.38462 16.7143H4.5V13.8214H1.38462V16.7143ZM5.19231 16.7143H8.65385V13.8214H5.19231V16.7143ZM1.38462 13.1786H4.5V9.96429H1.38462V13.1786ZM5.19231 13.1786H8.65385V9.96429H5.19231V13.1786ZM1.38462 9.32143H4.5V6.42857H1.38462V9.32143ZM9.34615 16.7143H12.8077V13.8214H9.34615V16.7143ZM5.19231 9.32143H8.65385V6.42857H5.19231V9.32143ZM13.5 16.7143H16.6154V13.8214H13.5V16.7143ZM9.34615 13.1786H12.8077V9.96429H9.34615V13.1786ZM5.53846 4.5V1.60714C5.53846 1.52009 5.50421 1.44475 5.4357 1.38114C5.36719 1.31752 5.28606 1.28571 5.19231 1.28571H4.5C4.40625 1.28571 4.32512 1.31752 4.25661 1.38114C4.1881 1.44475 4.15385 1.52009 4.15385 1.60714V4.5C4.15385 4.58705 4.1881 4.66239 4.25661 4.726C4.32512 4.78962 4.40625 4.82143 4.5 4.82143H5.19231C5.28606 4.82143 5.36719 4.78962 5.4357 4.726C5.50421 4.66239 5.53846 4.58705 5.53846 4.5ZM13.5 13.1786H16.6154V9.96429H13.5V13.1786ZM9.34615 9.32143H12.8077V6.42857H9.34615V9.32143ZM13.5 9.32143H16.6154V6.42857H13.5V9.32143ZM13.8462 4.5V1.60714C13.8462 1.52009 13.8119 1.44475 13.7434 1.38114C13.6749 1.31752 13.5938 1.28571 13.5 1.28571H12.8077C12.7139 1.28571 12.6328 1.31752 12.5643 1.38114C12.4958 1.44475 12.4615 1.52009 12.4615 1.60714V4.5C12.4615 4.58705 12.4958 4.66239 12.5643 4.726C12.6328 4.78962 12.7139 4.82143 12.8077 4.82143H13.5C13.5938 4.82143 13.6749 4.78962 13.7434 4.726C13.8119 4.66239 13.8462 4.58705 13.8462 4.5ZM18 3.85714V16.7143C18 17.0625 17.863 17.3638 17.5889 17.6183C17.3149 17.8728 16.9904 18 16.6154 18H1.38462C1.00962 18 0.685096 17.8728 0.411058 17.6183C0.137019 17.3638 0 17.0625 0 16.7143V3.85714C0 3.50893 0.137019 3.20759 0.411058 2.95312C0.685096 2.69866 1.00962 2.57143 1.38462 2.57143H2.76923V1.60714C2.76923 1.16518 2.9387 0.78683 3.27764 0.472098C3.61659 0.157366 4.02404 0 4.5 0H5.19231C5.66827 0 6.07572 0.157366 6.41466 0.472098C6.75361 0.78683 6.92308 1.16518 6.92308 1.60714V2.57143H11.0769V1.60714C11.0769 1.16518 11.2464 0.78683 11.5853 0.472098C11.9243 0.157366 12.3317 0 12.8077 0H13.5C13.976 0 14.3834 0.157366 14.7224 0.472098C15.0613 0.78683 15.2308 1.16518 15.2308 1.60714V2.57143H16.6154C16.9904 2.57143 17.3149 2.69866 17.5889 2.95312C17.863 3.20759 18 3.50893 18 3.85714Z" fill="white"/>
</svg>
